<?xml version="1.0" encoding="utf-8"?>
<!-- Generator: Adobe Illustrator 28.7.4, SVG Export Plug-In . SVG Version: 9.03 Build 55973)  -->
<svg version="1.0" id="Layer_1" xmlns="http://www.w3.org/2000/svg" xmlns:xlink="http://www.w3.org/1999/xlink" x="0px" y="0px"
	 viewBox="0 0 64 64" style="enable-background:new 0 0 64 64;" xml:space="preserve">
<style type="text/css">
	.st0{fill:#FBF8EF;}
	.st1{fill:#CFCEDD;}
	.st2{fill:#FABC3F;}
	.st3{fill:#31323A;}
	.st4{fill:#B2B1BE;}
	.st5{fill:#88CC69;}
	.st6{fill:#FCDDB0;}
	.st7{fill:#BDA684;}
	.st8{fill:#40A578;}
	.st9{fill:#9DDE8B;}
	.st10{fill:#FF4D80;}
	.st11{fill:#9E9D9D;}
	.st12{fill:#974EC3;}
	.st13{fill:#FD8B51;}
	.st14{fill:#FFC26F;}
	.st15{fill:#67C6E3;}
	.st16{fill:#FF9D23;}
	.st17{fill:#27BDE0;}
	.st18{fill:#D4F2F9;}
	.st19{fill:#A9E5F3;}
	.st20{fill:#F7DEDA;}
	.st21{fill:#89CFF3;}
	.st22{fill:#F39E60;}
</style>
<g>
	<g>
		<polygon class="st8" points="49.9,45 54.2,47.2 35.3,59.3 9.1,42.1 13.5,40 		"/>
	</g>
	<g>
		<polygon class="st9" points="50.4,40.2 54.2,42.3 35.3,54.3 9.1,37.1 13,35.3 		"/>
	</g>
	<g>
		<polygon class="st0" points="35.2,49.9 9,32.7 28,23.8 54.1,37.8 		"/>
	</g>
	<g>
		<path class="st9" d="M46.8,19.2l1.6-0.2C56.1,9.8,55,4.7,55,4.7c-4.2,0.3-7.5,2.2-10,4.8l-2.6,0.8c-4.1,3.5-5,7.8-5.1,10.6
			c-0.2,4.5,3,7.1,3,7.1s9.9-0.7,11.2-9.6l-4.6,0.9L46.8,19.2z"/>
	</g>
	<g>
		<path class="st3" d="M35.2,50.8c-0.2,0-0.4-0.1-0.5-0.2L8.5,33.5C8.2,33.3,8,33,8,32.6c0-0.3,0.2-0.6,0.5-0.8l19-8.9
			c0.3-0.1,0.6-0.1,0.8,0l26.2,14c0.3,0.2,0.5,0.5,0.5,0.8c0,0.3-0.2,0.6-0.4,0.8l-18.9,12C35.6,50.7,35.4,50.8,35.2,50.8z
			 M10.9,32.8l24.4,15.9l17-10.8l-24.3-13L10.9,32.8z"/>
	</g>
	<g>
		<path class="st3" d="M35.3,60.2c-0.2,0-0.4-0.1-0.5-0.2L8.6,42.9c-0.3-0.2-0.4-0.5-0.4-0.9s0.2-0.6,0.5-0.8l4.5-2.1
			c0.5-0.2,1,0,1.2,0.5s0,1-0.5,1.2L11,42.3l24.4,15.9l17-10.8l-2.8-1.5c-0.5-0.2-0.6-0.8-0.4-1.3c0.2-0.5,0.8-0.6,1.3-0.4l4.3,2.3
			c0.3,0.2,0.5,0.5,0.5,0.8c0,0.3-0.2,0.6-0.4,0.8l-18.9,12C35.7,60.2,35.5,60.2,35.3,60.2z"/>
	</g>
	<g>
		<path class="st3" d="M39.4,34.8c-0.5,0-0.9-0.4-0.9-0.9c0-0.5-0.1-12.1,9.7-23.8c0.3-0.4,0.9-0.5,1.3-0.1c0.4,0.3,0.5,0.9,0.1,1.3
			c-9.4,11.2-9.3,22.5-9.3,22.6C40.4,34.4,39.9,34.8,39.4,34.8C39.4,34.8,39.4,34.8,39.4,34.8z"/>
	</g>
	<g>
		<path class="st3" d="M43.1,13.6c-0.4,0-0.8-0.3-0.9-0.7l-0.7-2.4c-0.1-0.5,0.1-1,0.6-1.2c0.5-0.1,1,0.1,1.2,0.6l0.7,2.4
			c0.1,0.5-0.1,1-0.6,1.2C43.2,13.6,43.1,13.6,43.1,13.6z"/>
	</g>
	<g>
		<path class="st3" d="M48.3,20c-0.2,0-0.4-0.1-0.6-0.2c-0.4-0.3-0.4-0.9-0.1-1.3c5.5-6.5,6.4-10.9,6.4-12.7
			c-3.3,0.5-6.1,1.9-8.5,4.4c-0.4,0.4-1,0.4-1.3,0c-0.4-0.4-0.4-1,0-1.3c2.9-3,6.5-4.7,10.6-5c0.5,0,0.9,0.3,1,0.7
			c0.1,0.2,1.1,5.7-6.8,15.1C48.9,19.8,48.6,20,48.3,20z"/>
	</g>
	<g>
		<path class="st3" d="M40.2,29c-0.2,0-0.4-0.1-0.6-0.2c-0.1-0.1-3.5-3-3.3-7.9c0.2-4.6,2.1-8.4,5.5-11.3c0.4-0.3,1-0.3,1.3,0.1
			c0.3,0.4,0.3,1-0.1,1.3c-3,2.6-4.6,5.9-4.8,10c-0.2,3.2,1.6,5.4,2.4,6.1c1.7-0.2,8-1.4,9.7-7.4L47,20.3c-0.5,0.1-1-0.2-1.1-0.7
			c-0.1-0.5,0.2-1,0.7-1.1l4.6-0.9c0.3-0.1,0.6,0,0.8,0.2c0.2,0.2,0.3,0.5,0.3,0.8C50.9,28.1,40.3,29,40.2,29
			C40.2,29,40.2,29,40.2,29z"/>
	</g>
	<g>
		<path class="st3" d="M35.3,55.2c-0.2,0-0.4-0.1-0.5-0.2L8.6,37.9c-0.3-0.2-0.4-0.5-0.4-0.9s0.2-0.6,0.5-0.8l3.9-1.8
			c0.5-0.2,1,0,1.2,0.5c0.2,0.5,0,1-0.5,1.2L11,37.3l24.4,15.9l17-10.8L49.9,41c-0.5-0.2-0.6-0.8-0.4-1.3c0.2-0.5,0.8-0.6,1.3-0.4
			l3.8,2c0.3,0.2,0.5,0.5,0.5,0.8c0,0.3-0.2,0.6-0.4,0.8l-18.9,12C35.7,55.2,35.5,55.2,35.3,55.2z"/>
	</g>
	<g>
		<path class="st3" d="M18.5,34.7c-0.3,0-0.7-0.2-0.8-0.5c-0.2-0.5-0.1-1,0.4-1.3l10.1-5.3c0.5-0.2,1-0.1,1.3,0.4
			c0.2,0.5,0.1,1-0.4,1.3L19,34.6C18.8,34.6,18.7,34.7,18.5,34.7z"/>
	</g>
	<g>
		<path class="st3" d="M22.3,36.9c-0.3,0-0.7-0.2-0.8-0.5c-0.2-0.5-0.1-1,0.4-1.3l5.3-2.8c0.5-0.2,1-0.1,1.3,0.4
			c0.2,0.5,0.1,1-0.4,1.3l-5.3,2.8C22.6,36.9,22.4,36.9,22.3,36.9z"/>
	</g>
	<g>
		<path class="st3" d="M32.2,40.8c-0.3,0-0.7-0.2-0.8-0.5c-0.2-0.5-0.1-1,0.4-1.3l5.3-2.8c0.5-0.2,1-0.1,1.3,0.4
			c0.2,0.5,0.1,1-0.4,1.3l-5.3,2.8C32.5,40.8,32.4,40.8,32.2,40.8z"/>
	</g>
</g>
</svg>
